<svg width="64" height="64" xmlns="http://www.w3.org/2000/svg">

 <g>
  <title>background</title>
  <rect fill="#007f3f" id="canvas_background" height="66" width="66" y="-1" x="-1"/>
 </g>
 <g>
  <title>Layer 1</title>
  <g id="svg_10">
   <path fill="#ffffff" id="svg_2" d="m61.154224,17.08095c-0.280914,-0.187273 -0.65546,-0.28091 -0.936367,-0.093637l-19.101887,6.83548l-13.390051,-4.86911c0.749094,-1.872732 1.123642,-3.558194 1.123642,-4.962744c0,-2.528192 -0.936369,-4.775473 -2.715466,-6.55457c-1.779099,-1.779098 -4.120016,-2.715465 -6.554571,-2.715465c-5.150018,0 -9.270033,4.120015 -9.270033,9.270035c0,1.779098 0.655457,3.932739 1.779098,6.554565l-9.738218,3.277288c-0.374547,0.187271 -0.655457,0.561819 -0.655457,0.936365l0,33.709215c0,0.374542 0.187273,0.655457 0.468184,0.842728c0.187273,0.093639 0.374547,0.187275 0.56182,0.187275c0.093637,0 0.28091,0 0.374547,-0.093636l19.101887,-6.741848l18.540071,6.835484c0.187271,0.093636 0.468185,0.093636 0.655457,0l19.476429,-6.929119c0.37455,-0.187271 0.65546,-0.561817 0.65546,-0.936359l0,-33.709219c0.093639,-0.374546 -0.093639,-0.655455 -0.374546,-0.842728zm-41.574699,-10.487311c1.966373,0 3.74547,0.749093 5.056383,2.153644c0,0 0,0 0,0c1.404549,1.310914 2.153643,3.183648 2.153643,5.056382c0,1.310914 -0.468182,3.090013 -1.404549,5.150018c-1.685463,3.745468 -4.494564,7.678211 -5.805477,9.457306c-0.187273,-0.187273 -0.28091,-0.374546 -0.468184,-0.655457c-1.217276,-1.685461 -3.183647,-4.49456 -4.588199,-7.397301c-1.404551,-2.715462 -2.060008,-4.962743 -2.060008,-6.648203c-0.093637,-3.839105 3.183649,-7.116389 7.11639,-7.116389zm39.982872,44.290158l-18.446426,6.554565l-18.54007,-6.835472c-0.093637,0 -0.28091,-0.093639 -0.374548,-0.093639c-0.093639,0 -0.280912,0 -0.374546,0.093639l-18.071884,6.46093l0,-31.555569l9.36367,-3.277285c0,0 0,0 0,0.093636c0.093638,0.093637 0.093638,0.187273 0.187274,0.28091c0.093637,0.187273 0.187274,0.374544 0.28091,0.561823c0.093637,0.093636 0.093637,0.187273 0.187274,0.280907c0.093637,0.187273 0.187274,0.37455 0.28091,0.561821c0.093637,0.093636 0.093637,0.187275 0.187272,0.28091c0.093637,0.187273 0.187275,0.374548 0.28091,0.468184c0.093637,0.093636 0.093637,0.187271 0.187274,0.28091c0.093637,0.187273 0.187273,0.28091 0.28091,0.468184c0.093637,0.093636 0.093637,0.187275 0.187272,0.280909c0.093638,0.187275 0.187275,0.28091 0.280911,0.468184c0.093636,0.093637 0.093636,0.187273 0.187273,0.280912c0.093636,0.187271 0.187273,0.280909 0.28091,0.468184c0.093636,0.093637 0.093636,0.187271 0.187271,0.280909c0.093637,0.187273 0.187275,0.28091 0.280912,0.468184c0.093637,0.093637 0.093637,0.187275 0.187273,0.187275c0.093637,0.187273 0.187273,0.280909 0.28091,0.374546c0,0.093636 0.093636,0.093636 0.093636,0.187273c0.093637,0.187271 0.187275,0.28091 0.280912,0.374548c0,0 0.093634,0.093637 0.093634,0.093637c0.093637,0.093634 0.187275,0.280909 0.280912,0.374544c0,0 0.093637,0.093639 0.093637,0.093639c0.093636,0.093634 0.187273,0.280907 0.280907,0.374544c0,0 0,0 0,0c0.093639,0.093637 0.187277,0.187275 0.280912,0.280912c0,0 0,0 0,0c0.187273,0.280909 0.374546,0.468182 0.374546,0.561819c0.187273,0.280909 0.468184,0.374544 0.842731,0.374544c0.280907,0 0.561821,-0.187271 0.84273,-0.374544c0,0 0.093637,-0.093637 0.28091,-0.28091c0,0 0.093636,-0.093636 0.093636,-0.093636c0.093639,-0.093637 0.093639,-0.093637 0.187273,-0.187273c0,0 0.093639,-0.093637 0.093639,-0.093637c0.093634,-0.093637 0.093634,-0.187275 0.187271,-0.280912c0,-0.093636 0.093637,-0.093636 0.093637,-0.187273c0.093639,-0.093634 0.187275,-0.187273 0.187275,-0.280909c0.093637,-0.093637 0.093637,-0.187275 0.187273,-0.280909c0.093634,-0.093637 0.187273,-0.187275 0.280907,-0.37455c0.093639,-0.093636 0.093639,-0.187273 0.187273,-0.280909c0.093639,-0.093637 0.187277,-0.187273 0.280914,-0.374546c0.093636,-0.093637 0.187273,-0.187275 0.187273,-0.28091c0.093636,-0.093637 0.187275,-0.280912 0.280909,-0.374548c0.093639,-0.093637 0.187273,-0.280909 0.280909,-0.374546c0.093637,-0.093637 0.187277,-0.280909 0.280914,-0.374546c0.093634,-0.093639 0.187273,-0.280912 0.280907,-0.374548c0.093639,-0.187273 0.187273,-0.28091 0.280912,-0.468182c0.093634,-0.093639 0.187273,-0.280912 0.280909,-0.374548c0.093637,-0.187273 0.187273,-0.28091 0.28091,-0.468185c0.093637,-0.187271 0.187277,-0.280909 0.28091,-0.468182c0.093636,-0.187273 0.187273,-0.280912 0.280912,-0.468185c0.093634,-0.187273 0.187273,-0.28091 0.280909,-0.468184c0.093634,-0.187271 0.187273,-0.280907 0.280907,-0.468185c0.093639,-0.187271 0.187275,-0.280907 0.280914,-0.468182c0.093634,-0.187273 0.187273,-0.280909 0.280909,-0.468182c0.093637,-0.187275 0.187273,-0.280912 0.28091,-0.468185c0.093636,-0.187271 0.187275,-0.374548 0.280909,-0.468184c0.093636,-0.187271 0.187275,-0.280909 0.187275,-0.468182c0,0 0,0 0,-0.093639l13.858231,5.056383c0.187279,0.093639 0.468185,0.093639 0.65546,0l18.07188,-6.460932l0,31.742842z"/>
   <path fill="#00ff7f" id="svg_3" d="m50.854183,41.801041c0.187275,0.093636 0.468185,0.093636 0.65546,0.093636c0.561817,0 1.123642,-0.187275 1.591824,-0.468185c0.655457,-0.468185 1.123638,-1.123638 1.310909,-1.872734c0.187279,-0.749096 0,-1.591824 -0.374542,-2.247284c-0.468185,-0.655453 -1.123638,-1.123638 -1.872738,-1.310913c-1.59182,-0.374546 -3.277279,0.65546 -3.651825,2.24728l0,0c-0.187279,0.749096 0,1.591827 0.374546,2.247284c0.561817,0.65546 1.217278,1.123646 1.966366,1.310917zm-0.280907,-3.183655c0.093636,-0.561813 0.65546,-0.842728 1.123642,-0.749088c0.280907,0.093636 0.468178,0.187275 0.561817,0.468182c0.093639,0.187275 0.187279,0.468182 0.093639,0.749096c-0.093639,0.28091 -0.187279,0.468182 -0.468189,0.561817c-0.187267,0.093639 -0.468182,0.187275 -0.749088,0.093639c-0.280914,-0.093639 -0.468185,-0.187275 -0.561821,-0.468182c0,-0.187275 0,-0.37455 0,-0.655464z"/>
   <path fill="#ff0000" id="svg_4" d="m11.994953,38.711021l-0.655457,0.374554l-0.374547,-0.65546c-0.28091,-0.468182 -0.936367,-0.655457 -1.404552,-0.28091c-0.468183,0.28091 -0.655457,0.936371 -0.280909,1.404552l0.374546,0.655457l-0.655457,0.374546c-0.468184,0.28091 -0.655457,0.936371 -0.28091,1.404552c0.093637,0.374546 0.468183,0.468178 0.749093,0.468178c0.187273,0 0.374546,-0.093632 0.56182,-0.187267l0.655457,-0.374546l0.374546,0.655453c0.187274,0.280914 0.561821,0.468185 0.84273,0.468185c0.187275,0 0.374548,-0.093639 0.56182,-0.187271c0.468184,-0.280914 0.655457,-0.936367 0.280911,-1.404552l-0.374548,-0.65546l0.655457,-0.374542c0.468184,-0.280914 0.655457,-0.936367 0.28091,-1.404552c-0.187274,-0.468182 -0.842731,-0.561821 -1.310913,-0.280914z"/>
   <path fill="#ffffff" id="svg_5" d="m21.639534,41.52013c-1.217278,0 -2.809103,-0.187275 -3.839106,-0.468189c-0.561819,-0.093636 -1.12364,0.280914 -1.217278,0.842735c-0.093636,0.561813 0.28091,1.123638 0.84273,1.217274c1.030005,0.187275 2.715464,0.468185 4.213654,0.468185c0,0 0,0 0,0c0.561819,0 1.030003,-0.468185 1.030003,-1.030006c0,-0.561817 -0.468184,-1.029999 -1.030003,-1.029999z"/>
   <path fill="#ffffff" id="svg_6" d="m29.317743,37.961933c-0.65546,0.936367 -1.404551,1.685459 -2.340918,2.24728c-0.280909,0.187275 -0.655457,0.374546 -1.030003,0.561817c-0.561821,0.187275 -0.749096,0.842739 -0.561821,1.404552c0.187273,0.374546 0.561821,0.65546 0.936367,0.65546c0.093636,0 0.280909,0 0.374548,-0.093639c0.468182,-0.187275 0.84273,-0.374546 1.217276,-0.655457c1.123642,-0.749092 2.060005,-1.591824 2.90274,-2.715462c0.374542,-0.468185 0.280907,-1.123646 -0.187279,-1.404552c-0.280909,-0.561821 -0.936363,-0.468185 -1.310911,0z"/>
   <path fill="#ffffff" id="svg_7" d="m36.808681,31.220091c-1.030003,0 -1.591827,0.280909 -2.153645,0.468182c-1.310921,0.561823 -2.434559,1.779097 -2.715469,2.15365c-0.374546,0.468178 -0.280907,1.123634 0.093639,1.49818c0.187271,0.187275 0.468182,0.28091 0.655457,0.28091c0.28091,0 0.561821,-0.093636 0.749096,-0.374542c0.468182,-0.561825 1.217278,-1.217281 1.96637,-1.591827c0.561817,-0.187275 0.749092,-0.280907 1.404552,-0.374546c0.561813,0 1.029999,-0.468185 1.029999,-1.030003c0,-0.561823 -0.468185,-1.030005 -1.029999,-1.030005z"/>
   <path fill="#ffffff" id="svg_8" d="m40.647785,32.811913c-0.187271,0.561825 0,1.123642 0.561825,1.404552c1.029999,0.468182 2.528191,1.217274 3.651825,2.060005c0.187275,0.093636 0.37455,0.187279 0.561825,0.187279c0.374542,0 0.655453,-0.187279 0.842728,-0.468189c0.28091,-0.468182 0.187275,-1.123638 -0.280907,-1.404549c-1.310917,-0.842728 -2.809105,-1.685459 -4.026382,-2.153641c-0.468182,-0.37455 -1.030003,-0.093643 -1.310913,0.374542z"/>
   <path fill="#ffffff" id="svg_9" d="m19.579525,16.331856c1.7791,0 3.183651,-1.404551 3.183651,-3.183648s-1.404551,-3.183648 -3.183651,-3.183648c-1.779097,0 -3.183647,1.40455 -3.183647,3.183648s1.498188,3.183648 3.183647,3.183648zm0,-4.307289c0.561819,0 1.12364,0.468184 1.12364,1.123641c0,0.56182 -0.468182,1.123641 -1.12364,1.123641c-0.561817,0 -1.12364,-0.468184 -1.12364,-1.123641c0.093636,-0.561821 0.561823,-1.123641 1.12364,-1.123641z"/>
  </g>
  <text xml:space="preserve" text-anchor="start" font-family="Helvetica, Arial, sans-serif" font-size="13" id="svg_11" y="13.348398" x="30.361581" stroke-opacity="null" stroke-width="0" stroke="null" fill="#ffffff">OSM</text>
 </g>
</svg>